{"title":"The Big Bang Theory - S05E12 - 720p WEB-DL H.264 {$H@uN}","uid":6955378,"size":203505033,"categoryP":"video","categoryS":"hd___tv_shows","magnet":"?xt=urn:btih:58eee5a8530f973da18c2700c7c9353f176c0ce5&amp;dn=The+Big+Bang+Theory+-+S05E12+-+720p+WEB-DL+H.264+%7B%24H%40uN%7D&amp;tr=udp%3A%2F%2Ftracker.openbittorrent.com%3A80&amp;tr=udp%3A%2F%2Fopen.demonii.com%3A1337&amp;tr=udp%3A%2F%2Ftracker.coppersurfer.tk%3A6969&amp;tr=udp%3A%2F%2Fexodus.desync.com%3A6969","seeders":0,"leechers":2,"uploader":"ShaunGP","files":-1,"time":1326558233,"description":"&quot;WEB-DL means straight from iTunes where they release &quot;Bluray&quot; quality episodes.\n Such episodes are without any Logo and Caps.&quot;\n\nThe Big Bang Theory - S05E12 - The Shiny Trinket Maneuver - 720p WEB-DL H.264 {$H@uN}\n\nGeneral:\n\nComplete name                  : The Big Bang Theory - S05E12 - The Shiny Trinket Maneuver - 720p WEB-DL H.264 {$H@uN}.mkv\nOriginal air date              : January 12 2012\nGenre                          : Sitcom\nLanguage                       : English\nEncoder                        : $H@uN\nFile format                    : Matroska\nFile size                      : 194 MiB\nDuration                       : 20mn 51s\nOverall bit rate               : 1 301 Kbps\n\n\nVideo:\n\nFormat                         : AVC\nDuration                       : 20mn 51s\nBit rate                       : 1 200 Kbps\nWidth                          : 1 280 pixels\nHeight                         : 720 pixels\nDisplay aspect ratio           : 16:9\nFrame rate mode                : Variable\nFrame rate                     : 23.976 fps\nColor space                    : YUV\nChroma subsampling             : 4:2:0\nBit depth                      : 8 bits\nScan type                      : Progressive\nBits/(Pixel*Frame)             : 0.054\nStream size                    : 176 MiB (91%)\nWriting library                : x264 core 112\nLaguage                        : English\nSubtitles                      : Seperate .srt file included\n\n\nAudio:\n\nFormat                         : AC-3\nMode extension                 : CM (complete main)\nCodec ID                       : A_AC3\nDuration                       : 20mn 51s\nBit rate mode                  : Constant\nBit rate                       : 96 Kbps\nChannel(s)                     : 2 channels\nChannel positions              : Front: L R\nSampling rate                  : 48.0 KHz\nBit depth                      : 16 bits\nCompression mode               : Lossy\nStream size                    : 14.3 MiB (7%)\nLanguage                       : English\n\nScreen Shots:\n &lt;a href=&quot;\nhttp://i1140.photobucket.com/albums/n566/ShaunGP/ScreenShots2/TheBigBangTheoryS05E12TheShinyTrinketManeuver720pWEBDLH264.jpg&quot; rel=&quot;nofollow&quot; target=&quot;_NEW&quot;&gt;\nhttp://i1140.photobucket.com/albums/n566/ShaunGP/ScreenShots2/TheBigBangTheoryS05E12TheShinyTrinketManeuver720pWEBDLH264.jpg&lt;/a&gt;\n &lt;a href=&quot;\nhttp://i1140.photobucket.com/albums/n566/ShaunGP/ScreenShots2/TheBigBangTheoryS05E12TheShinyTrinketManeuver720pWEBDLH2642.jpg&quot; rel=&quot;nofollow&quot; target=&quot;_NEW&quot;&gt;\nhttp://i1140.photobucket.com/albums/n566/ShaunGP/ScreenShots2/TheBigBangTheoryS05E12TheShinyTrinketManeuver720pWEBDLH2642.jpg&lt;/a&gt;\n &lt;a href=&quot;\nhttp://i1140.photobucket.com/albums/n566/ShaunGP/ScreenShots2/TheBigBangTheoryS05E12TheShinyTrinketManeuver720pWEBDLH264-1.jpg&quot; rel=&quot;nofollow&quot; target=&quot;_NEW&quot;&gt;\nhttp://i1140.photobucket.com/albums/n566/ShaunGP/ScreenShots2/TheBigBangTheoryS05E12TheShinyTrinketManeuver720pWEBDLH264-1.jpg&lt;/a&gt;\n\n\nEncoder's Notes:\n\nDo Provide Feedback.\nKeep in Mind, you are charged nothing for Downloading a TORRENT,\nso its your duty to SEED n keep the torrent alive for as long as possible.\nEnjoy..!!! Keep Seeding till 1:1 ratio...","torrent":{"xt":"urn:btih:58eee5a8530f973da18c2700c7c9353f176c0ce5","amp;dn":"The+Big+Bang+Theory+-+S05E12+-+720p+WEB-DL+H.264+%7B%24H%40uN%7D","amp;tr":["udp%3A%2F%2Ftracker.openbittorrent.com%3A80","udp%3A%2F%2Fopen.demonii.com%3A1337","udp%3A%2F%2Ftracker.coppersurfer.tk%3A6969","udp%3A%2F%2Fexodus.desync.com%3A6969"],"infoHash":"58eee5a8530f973da18c2700c7c9353f176c0ce5","infoHashBuffer":{"type":"Buffer","data":[88,238,229,168,83,15,151,61,161,140,39,0,199,201,53,63,23,108,12,229]},"announce":[],"urlList":[]}}